<svg width="21" height="27" viewBox="0 0 21 27" fill="none" xmlns="http://www.w3.org/2000/svg">
<path d="M17.7261 8.81255H11.6323V17.3086C11.6323 17.5573 11.5336 17.7957 11.3577 17.9716C11.1819 18.1474 10.9435 18.2461 10.6948 18.2461C10.4462 18.2461 10.2077 18.1474 10.0319 17.9716C9.8561 17.7957 9.75732 17.5573 9.75732 17.3086V8.81255H3.66357C2.79362 8.81348 1.95956 9.15948 1.34441 9.77464C0.729256 10.3898 0.383255 11.2238 0.382324 12.0938V23.3438C0.383255 24.2138 0.729256 25.0478 1.34441 25.663C1.95956 26.2781 2.79362 26.6241 3.66357 26.6251H17.7261C18.596 26.6241 19.4301 26.2781 20.0452 25.663C20.6604 25.0478 21.0064 24.2138 21.0073 23.3438V12.0938C21.0064 11.2238 20.6604 10.3898 20.0452 9.77464C19.4301 9.15948 18.596 8.81348 17.7261 8.81255ZM11.6323 3.57603L14.7196 6.66275C14.8969 6.83114 15.1329 6.92363 15.3774 6.9205C15.6218 6.91737 15.8554 6.81887 16.0283 6.64599C16.2011 6.47312 16.2996 6.23955 16.3028 5.99508C16.3059 5.75062 16.2134 5.5146 16.045 5.33736L11.3575 0.649858C11.1817 0.474176 10.9434 0.375488 10.6948 0.375488C10.4463 0.375488 10.2079 0.474176 10.0321 0.649858L5.34463 5.33736C5.17624 5.5146 5.08374 5.75062 5.08687 5.99508C5.09 6.23955 5.18851 6.47312 5.36138 6.64599C5.53426 6.81887 5.76783 6.91737 6.01229 6.9205C6.25676 6.92363 6.49277 6.83114 6.67002 6.66275L9.75732 3.57603V8.81255H11.6323V3.57603Z" fill="white"/>
</svg>
