<svg width="54" height="55" viewBox="0 0 54 55" fill="none" xmlns="http://www.w3.org/2000/svg">
<path d="M26.6667 5.20557C14.4316 5.20557 4.46143 15.1757 4.46143 27.4108C4.46143 39.6459 14.4316 49.616 26.6667 49.616C38.9017 49.616 48.8719 39.6459 48.8719 27.4108C48.8719 15.1757 38.9017 5.20557 26.6667 5.20557ZM37.2808 22.3036L24.6904 34.894C24.3795 35.2048 23.9576 35.3825 23.5135 35.3825C23.0694 35.3825 22.6475 35.2048 22.3366 34.894L16.0526 28.6099C15.4086 27.9659 15.4086 26.9001 16.0526 26.2561C16.6965 25.6122 17.7624 25.6122 18.4063 26.2561L23.5135 31.3633L34.927 19.9498C35.571 19.3059 36.6368 19.3059 37.2808 19.9498C37.9247 20.5938 37.9247 21.6374 37.2808 22.3036Z" fill="#23A26D"/>
</svg>
